<svg width="613" height="91" viewBox="0 0 613 91" fill="none" xmlns="http://www.w3.org/2000/svg">
<path d="M126.238 11.4426H137.748C138.197 11.4426 138.554 11.8054 138.554 12.2542V49.2261L148.908 33.1781C149.086 32.9076 149.265 32.7292 149.713 32.7292H164.618C165.602 32.7292 165.602 33.092 165.067 33.9036L150.962 53.7392L167.92 75.3824C168.633 76.2863 168.455 76.5568 167.471 76.5568H152.923C152.388 76.5568 152.031 76.4646 151.761 76.1079L138.548 58.4367V75.7513C138.548 76.2002 138.191 76.563 137.742 76.563H126.324C125.789 76.563 125.432 76.2002 125.432 75.7513V12.2727C125.432 11.8238 125.789 11.4611 126.238 11.4611V11.4426Z" fill="white"/>
<path d="M201.128 33.5348C201.307 32.9937 201.577 32.6309 202.112 32.6309H211.575C212.024 32.6309 212.38 32.9937 212.38 33.5348V75.6469C212.38 76.0957 212.11 76.5507 211.489 76.5507H202.026C201.491 76.5507 201.221 76.1879 201.042 75.6469L199.616 72.1298C196.849 75.5546 192.92 77.5406 187.921 77.5406C174.886 77.719 166.143 68.25 166.143 54.7292C166.143 41.2083 174.892 32.0037 187.921 31.9177C192.92 31.9177 196.849 33.8115 199.616 37.2363L201.135 33.5409L201.128 33.5348ZM188.634 64.3764C194.439 64.3764 198.275 60.5888 198.275 54.7292C198.275 48.8695 194.346 45.0819 188.634 45.0819C182.922 45.0819 179.172 48.9617 179.172 54.7292C179.172 60.4966 183.101 64.3764 188.634 64.3764Z" fill="white"/>
<path d="M221.302 33.6269C221.302 32.9936 221.659 32.637 222.194 32.637H231.478C232.105 32.637 232.462 32.9998 232.64 33.5409L233.532 36.9657C236.299 33.5409 240.314 31.5548 245.94 31.5548C255.403 31.5548 262.098 39.4005 262.098 51.2121V75.5607C262.098 76.194 261.742 76.5506 261.207 76.5506H249.869C249.334 76.5506 248.977 76.1018 248.977 75.5607V54.2802C248.977 48.3283 245.854 44.8113 241.746 44.9036C238.352 44.9958 234.786 47.4306 234.43 55.1841V75.653C234.43 76.1018 233.981 76.4646 233.538 76.4646H222.292C221.757 76.4646 221.308 76.1018 221.308 75.653V33.6331L221.302 33.6269Z" fill="white"/>
<path d="M268.167 32.6309H273.074V28.3945C273.074 14.4186 279.056 10.4527 288.156 10.4527C294.139 10.4527 298.689 13.4286 299.759 14.4186C300.116 14.7813 300.208 15.2302 300.029 15.679L296.279 24.6991C296.187 25.0619 295.83 25.3324 295.473 25.3324C295.295 25.3324 295.117 25.2402 294.938 25.1541C293.776 24.4347 292.171 23.4387 290.474 23.4387C287.794 23.4387 286.281 24.613 286.281 29.5689V32.637H295.295C295.83 32.637 296.187 33.0859 296.187 33.5409V44.092C296.187 44.633 295.83 44.9958 295.295 44.9958H286.281V75.653C286.281 76.194 285.924 76.5568 285.389 76.5568H274.051C273.516 76.5568 273.16 76.194 273.16 75.653L273.068 44.9958H268.161C267.626 44.9958 267.269 44.633 267.269 44.092V33.5409C267.269 33.092 267.626 32.637 268.161 32.637L268.167 32.6309Z" fill="white"/>
<path d="M311.103 10.9016C315.924 10.9016 319.047 14.0559 319.047 18.8395C319.047 23.6232 315.924 26.9557 311.103 26.9557C306.283 26.9557 303.067 23.7092 303.067 18.8395C303.067 13.9698 306.369 10.9016 311.103 10.9016ZM317.621 75.6469C317.621 76.188 317.35 76.5507 316.729 76.5507H305.483C304.948 76.5507 304.592 76.188 304.592 75.6469V33.627C304.592 32.9937 304.948 32.6371 305.576 32.6371H316.821C317.27 32.6371 317.627 32.9999 317.627 33.4487V75.6469H317.621Z" fill="white"/>
<path d="M326.542 33.627C326.542 32.9937 326.899 32.6371 327.434 32.6371H336.718C337.346 32.6371 337.702 32.9999 337.881 33.541L338.772 36.9658C341.539 33.541 345.554 31.5549 351.18 31.5549C360.643 31.5549 367.339 39.4006 367.339 51.2122V75.5608C367.339 76.1941 366.982 76.5507 366.447 76.5507H355.109C354.574 76.5507 354.218 76.1019 354.218 75.5608V54.2803C354.218 48.3284 351.094 44.8114 346.987 44.9036C343.593 44.9959 340.026 47.4307 339.67 55.1842V75.653C339.67 76.1019 339.221 76.4647 338.778 76.4647H327.532C326.997 76.4647 326.549 76.1019 326.549 75.653V33.6332L326.542 33.627Z" fill="white"/>
<path d="M408.842 33.5348C409.02 32.9937 409.291 32.6309 409.826 32.6309H419.289C419.738 32.6309 420.094 32.9937 420.094 33.5348V75.6469C420.094 76.0957 419.824 76.5507 419.203 76.5507H409.74C409.205 76.5507 408.934 76.188 408.756 75.6469L407.33 72.1299C404.563 75.5547 400.634 77.5407 395.635 77.5407C382.6 77.719 373.856 68.2501 373.856 54.7292C373.856 41.2083 382.606 32.0038 395.635 31.9177C400.634 31.9177 404.563 33.8115 407.33 37.2363L408.848 33.5409L408.842 33.5348ZM396.348 64.3764C402.152 64.3764 405.989 60.5888 405.989 54.7292C405.989 48.8695 402.06 45.082 396.348 45.082C390.636 45.082 386.885 48.9618 386.885 54.7292C386.885 60.4966 390.814 64.3764 396.348 64.3764Z" fill="white"/>
<path d="M429.016 33.627C429.016 32.9937 429.372 32.6371 429.907 32.6371H439.192C439.819 32.6371 440.176 32.9999 440.354 33.541L441.245 36.9658C444.012 33.541 448.027 31.5549 453.653 31.5549C463.116 31.5549 469.812 39.4006 469.812 51.2122V75.5608C469.812 76.1941 469.455 76.5507 468.921 76.5507H457.582C457.048 76.5507 456.691 76.1019 456.691 75.5608V54.2803C456.691 48.3284 453.567 44.8114 449.46 44.9036C446.066 44.9959 442.5 47.4307 442.143 55.1842V75.653C442.143 76.1019 441.694 76.4647 441.252 76.4647H430.006C429.471 76.4647 429.022 76.1019 429.022 75.653V33.6332L429.016 33.627Z" fill="white"/>
<path d="M498.821 77.5407C485.344 77.5407 476.33 68.3423 476.33 54.7292C476.33 39.7634 487.219 32.1882 498.2 31.8255C506.593 31.8255 513.283 34.7092 518.104 41.8355C518.374 42.3765 518.374 42.9176 518.011 43.1882L509.532 50.2222C509.354 50.4005 509.084 50.4005 508.905 50.4005C508.549 50.4005 508.278 50.3083 508.014 49.9517C505.782 46.7974 502.658 44.9897 498.821 44.9897C493.109 44.9897 489.359 48.8695 489.359 54.7292C489.359 60.5888 493.109 64.4686 498.821 64.4686C504.085 64.4686 506.495 61.4927 507.749 60.14C508.02 59.7772 508.376 59.6911 508.733 59.6911C509.004 59.6911 509.182 59.6912 509.36 59.8695L517.034 67.2663C517.304 67.5368 517.483 68.0779 517.126 68.5268C513.289 74.3864 507.042 77.5468 498.828 77.5468L498.821 77.5407Z" fill="white"/>
<path d="M530.954 10.9016C535.775 10.9016 538.898 14.0559 538.898 18.8395C538.898 23.6232 535.775 26.9557 530.954 26.9557C526.134 26.9557 522.918 23.7092 522.918 18.8395C522.918 13.9698 526.22 10.9016 530.954 10.9016ZM537.472 75.6469C537.472 76.188 537.201 76.5507 536.58 76.5507H525.334C524.8 76.5507 524.443 76.188 524.443 75.6469V33.627C524.443 32.9937 524.799 32.6371 525.427 32.6371H536.673C537.121 32.6371 537.478 32.9999 537.478 33.4487V75.6469H537.472Z" fill="white"/>
<path d="M579.16 33.5348C579.338 32.9937 579.609 32.6309 580.143 32.6309H589.606C590.055 32.6309 590.412 32.9937 590.412 33.5348V75.6469C590.412 76.0957 590.141 76.5507 589.52 76.5507H580.057C579.522 76.5507 579.252 76.188 579.074 75.6469L577.647 72.1299C574.88 75.5547 570.951 77.5407 565.952 77.5407C552.917 77.719 544.174 68.2501 544.174 54.7292C544.174 41.2083 552.923 32.0038 565.952 31.9177C570.951 31.9177 574.88 33.8115 577.647 37.2363L579.166 33.5409L579.16 33.5348ZM566.666 64.3764C572.47 64.3764 576.307 60.5888 576.307 54.7292C576.307 48.8695 572.378 45.082 566.666 45.082C560.953 45.082 557.203 48.9618 557.203 54.7292C557.203 60.4966 561.132 64.3764 566.666 64.3764Z" fill="white"/>
<path d="M612.455 75.6469C612.455 76.188 612.098 76.5507 611.563 76.5507H600.225C599.69 76.5507 599.333 76.188 599.333 75.6469V12.3465C599.333 11.8055 599.69 11.4427 600.225 11.4427H611.563C612.098 11.4427 612.455 11.8055 612.455 12.3465V75.6469Z" fill="white"/>
<path d="M86.5308 34.6877L72.0026 20.1594L44.2185 47.9436L35.6293 39.3543C34.5912 38.3163 32.9055 38.3163 31.8674 39.3543L28.8773 42.3445C27.8392 43.3825 27.8392 45.0682 28.8773 46.1063L42.3399 59.5689C43.3779 60.607 45.0636 60.607 46.1017 59.5689L72.0026 33.668L79.7835 41.4488C80.8674 42.5328 81.46 43.9705 81.46 45.5C81.46 47.0295 80.8629 48.4672 79.7835 49.5512L49.5466 79.7881C48.4626 80.8721 47.0249 81.4646 45.4954 81.4646C43.9659 81.4646 42.5282 80.8675 41.4442 79.7881L11.2349 49.5741C10.1509 48.4902 9.5584 47.0525 9.5584 45.523C9.5584 43.9934 10.1555 42.5558 11.2349 41.4718L41.4672 11.2257C42.5512 10.1417 43.9888 9.54921 45.5184 9.54921C47.0479 9.54921 48.4856 10.1463 49.5695 11.2257L57.2723 18.9285L64.0243 12.1765L56.3215 4.47375C53.4324 1.58924 49.5971 0 45.5138 0C41.4304 0 37.5951 1.58924 34.7106 4.47375L4.47375 34.7106C1.58923 37.5951 0 41.4304 0 45.5138C0 49.5925 1.58923 53.4324 4.47375 56.3169L34.6831 86.5263C37.5676 89.4108 41.4029 91 45.4862 91C49.565 91 53.4049 89.4108 56.2894 86.5263L86.5262 56.2894C89.4108 53.4049 91 49.5696 91 45.4862C91 41.4075 89.4108 37.5676 86.5262 34.6831L86.5308 34.6877Z" fill="white"/>
</svg>
